<svg t="1678437312171" viewBox="0 0 1161 1024" version="1.1" xmlns="http://www.w3.org/2000/svg" p-id="2506" width="32" height="32"><path d="M574.2546875 129.16425781l-38.31767578 84.32490235H213.43554687v257.20488281l151.69042969-84.33105469L538.31533203 559.671875l33.44765625 73.659375-56.63320312 124.62275391 59.11787109 130.16425781H171.30341797a42.15234375 42.15234375 0 0 1-42.13916016-42.16552735V171.32978516a42.15234375 42.15234375 0 0 1 42.13916016-42.16552735h402.95126953z m406.0546875 0a42.15234375 42.15234375 0 0 1 42.13828125 42.16552735v674.62382812a42.15234375 42.15234375 0 0 1-42.13828125 42.16552735H633.99658203l2.48554688-5.44658204-56.63935547-124.67021484 56.63935547-124.67021484-17.0859375-37.60488282 124.95146484-125.03320312 193.82958984 126.49042969V213.4953125l-337.53427734-0.00615234 35.83916016-78.87832032-2.47851563-5.44658203h346.30576172zM723.28466797 297.81933594c34.90576172 0 63.20214844 28.31660156 63.20214844 63.24873047 0 34.92509766-28.29638672 63.24169922-63.20214844 63.24169921-34.91191406 0-63.20126953-28.31660156-63.20126953-63.24169921s28.28935547-63.24873047 63.20214844-63.24873047z" fill="#DBDBDB" p-id="2507"></path></svg>